HIERARCHY
ROOT Hips
{
	OFFSET 0.000000 0.000000 0.000000
	CHANNELS 6 Xposition Yposition Zposition Zrotation Yrotation Xrotation 
	JOINT LeftUpLeg_virtual
	{
		OFFSET 0.000000 0.000000 0.000000
		CHANNELS 3 Zrotation Yrotation Xrotation
		JOINT LeftUpLeg
		{
			OFFSET 10.205400 -3.823500 0.155100
			CHANNELS 3 Zrotation Yrotation Xrotation
			JOINT LeftLeg
			{
				OFFSET 0.708757 -12.982077 0.567790
				CHANNELS 3 Zrotation Yrotation Xrotation
				JOINT LeftFoot
				{
					OFFSET -0.708756 -10.717838 -2.184338
					CHANNELS 3 Zrotation Yrotation Xrotation
					JOINT LeftToeBase
					{
						OFFSET 0.108149 -7.191104 7.560241
						CHANNELS 3 Zrotation Yrotation Xrotation
						End Site
						{
							OFFSET 0.000000 0.000000 0.000000
						}
					}
				}
			}
		}
	}
	JOINT RightUpLeg_virtual
	{
		OFFSET 0.000000 0.000000 0.000000
		CHANNELS 3 Zrotation Yrotation Xrotation
		JOINT RightUpLeg
		{
			OFFSET -10.205400 -3.823500 0.005500
			CHANNELS 3 Zrotation Yrotation Xrotation
			JOINT RightLeg
			{
				OFFSET -0.708756 -12.982134 0.610632
				CHANNELS 3 Zrotation Yrotation Xrotation
				JOINT RightFoot
				{
					OFFSET 0.708754 -10.717769 -1.945823
					CHANNELS 3 Zrotation Yrotation Xrotation
					JOINT RightToeBase
					{
						OFFSET -0.108140 -7.191069 7.372968
						CHANNELS 3 Zrotation Yrotation Xrotation
						End Site
						{
							OFFSET 0.000000 0.000000 0.000000
						}
					}
				}
			}
		}
	}
	JOINT Spine_virtual
	{
		OFFSET 0.000000 0.000000 0.000000
		CHANNELS 3 Zrotation Yrotation Xrotation
		JOINT Spine
		{
			OFFSET 0.000000 6.876099 0.125700
			CHANNELS 3 Zrotation Yrotation Xrotation
			JOINT Spine1
			{
				OFFSET 0.000000 8.022060 0.146608
				CHANNELS 3 Zrotation Yrotation Xrotation
				JOINT Spine2
				{
					OFFSET 0.000000 9.168068 0.167552
					CHANNELS 3 Zrotation Yrotation Xrotation
					JOINT Neck_virtual
					{
						OFFSET 0.000000 0.000000 0.000000
						CHANNELS 3 Zrotation Yrotation Xrotation
						JOINT Neck
						{
							OFFSET 0.000000 10.314075 0.188496
							CHANNELS 3 Zrotation Yrotation Xrotation
							JOINT Head
							{
								OFFSET 0.000000 7.643700 -2.377400
								CHANNELS 3 Zrotation Yrotation Xrotation
								End Site
								{
									OFFSET 0.000000 0.000000 0.000000
								}
							}
						}
					}
					JOINT LeftShoulder_virtual
					{
						OFFSET 0.000000 0.000000 0.000000
						CHANNELS 3 Zrotation Yrotation Xrotation
						JOINT LeftShoulder
						{
							OFFSET 4.392200 8.824978 0.174984
							CHANNELS 3 Zrotation Yrotation Xrotation
							JOINT LeftArm
							{
								OFFSET 8.771219 -2.981674 -0.026999
								CHANNELS 3 Zrotation Yrotation Xrotation
								JOINT LeftForeArm
								{
									OFFSET 8.512804 0.000000 -0.000000
									CHANNELS 3 Zrotation Yrotation Xrotation
									JOINT LeftHand
									{
										OFFSET 18.484802 0.000000 -0.000000
										CHANNELS 3 Zrotation Yrotation Xrotation
										End Site
										{
											OFFSET 0.000000 0.000000 0.000000
										}
									}
								}
							}
						}
					}
					JOINT RightShoulder_virtual
					{
						OFFSET 0.000000 0.000000 0.000000
						CHANNELS 3 Zrotation Yrotation Xrotation
						JOINT RightShoulder
						{
							OFFSET -4.392200 8.824993 0.141379
							CHANNELS 3 Zrotation Yrotation Xrotation
							JOINT RightArm
							{
								OFFSET -8.771282 -2.981682 -0.094208
								CHANNELS 3 Zrotation Yrotation Xrotation
								JOINT RightForeArm
								{
									OFFSET -8.494598 0.000000 0.000000
									CHANNELS 3 Zrotation Yrotation Xrotation
									JOINT RightHand
									{
										OFFSET -18.483803 0.000000 0.000001
										CHANNELS 3 Zrotation Yrotation Xrotation
										End Site
										{
											OFFSET 0.000000 0.000000 0.000000
										}
									}
								}
							}
						}
					}
				}
			}
		}
	}
}
MOTION
Frames: 9
Frame Time: 0.033333
-10.785480 34.570049 0.250502 179.034476 5.399285 -177.741589 -4.178096 -5.537971 34.259030 -6.266585 -2.517025 -77.302865 5.429816 -2.592276 45.284284 -7.239230 9.217308 10.926017 0.000000 0.000000 0.000000 4.704603 -11.093252 32.295508 -19.034455 -15.450887 -69.465346 -1.262082 2.449610 47.765251 5.905878 -0.040894 19.680205 0.000000 0.000000 0.000000 2.537438 -6.149043 52.814291 -5.726107 -0.204896 24.331471 0.776460 -3.119189 3.774037 0.242210 0.038919 0.181878 2.469253 -2.885778 8.055847 5.914434 10.691252 7.454825 0.000000 0.000000 0.000000 2.146354 -1.769910 2.187097 -13.240522 -17.923147 -3.756716 -8.630805 -49.286252 -14.235190 -1.583389 -39.687019 3.021049 0.000000 0.000000 0.000000 -0.192010 -0.778312 1.814415 1.993757 25.339997 -17.667939 6.565794 52.343759 -0.572901 -11.413912 51.014396 -4.239981 0.000000 0.000000 0.000000 
-10.890585 34.546822 0.207458 178.651890 4.170979 -177.617772 -4.585626 -6.266672 34.106218 -6.727257 -2.678020 -77.276029 5.909234 -2.688615 45.131028 -8.209365 9.471496 11.164477 0.000000 0.000000 0.000000 4.521384 -12.048232 31.932074 -18.947865 -16.057601 -69.286600 -1.312036 2.692433 47.929650 6.064835 0.463445 19.983607 0.000000 0.000000 0.000000 2.016808 -6.642239 52.866211 -5.826758 -0.138150 24.798689 0.800180 -2.956856 3.310207 0.278152 0.043742 0.182160 2.390653 -2.688593 7.847070 6.336115 10.951214 7.305345 0.000000 0.000000 0.000000 2.069957 -1.655969 2.076680 -13.620991 -18.104337 -3.903443 -9.172044 -49.351631 -14.033523 -1.806119 -39.070028 3.043662 0.000000 0.000000 0.000000 -0.141916 -0.618775 1.609586 1.723962 24.956055 -18.573299 7.291712 54.605317 -1.611486 -10.719577 49.063496 -3.894508 0.000000 0.000000 0.000000 
-11.047268 34.558857 0.154389 178.267500 2.578159 -177.500197 -4.946119 -7.015651 34.174134 -7.541549 -2.702568 -77.293945 6.376501 -2.490481 44.405245 -9.250001 9.818055 11.754735 0.000000 0.000000 0.000000 4.514690 -12.938563 31.873091 -19.256923 -16.750960 -68.997478 -1.381626 2.947975 48.055363 6.299745 1.314087 20.270033 0.000000 0.000000 0.000000 2.220236 -7.208345 53.029476 -5.923011 -0.131787 25.183843 0.563520 -2.918817 2.962691 0.355127 -0.083985 0.165664 2.337817 -2.571044 7.650730 6.596828 11.197784 7.011364 0.000000 0.000000 0.000000 2.006938 -1.554482 2.011867 -14.001326 -18.273130 -4.010533 -9.952493 -48.938159 -13.925085 -1.968072 -38.803374 3.162910 0.000000 0.000000 0.000000 -0.298482 -0.545367 1.347079 1.496997 24.305607 -19.066079 8.670958 56.154673 -2.181671 -10.294878 47.279550 -3.854401 0.000000 0.000000 0.000000 
-11.205935 34.602585 0.126026 177.932029 0.954504 -177.404847 -5.219906 -7.576795 34.205341 -8.654064 -2.473538 -77.229919 6.779153 -2.084911 43.473297 -10.203795 10.229788 12.727812 0.000000 0.000000 0.000000 4.629147 -13.626689 31.866043 -19.754820 -17.399541 -68.528811 -1.502009 3.159455 48.089323 6.554355 2.508900 20.583673 0.000000 0.000000 0.000000 2.223453 -7.632194 52.976556 -6.022050 -0.417255 25.700089 0.449546 -2.840072 2.807497 0.312541 -0.129683 0.337358 2.167980 -2.661423 7.485355 6.774352 11.415950 6.527803 0.000000 0.000000 0.000000 1.922791 -1.347259 1.906765 -13.976241 -17.926352 -4.292576 -10.703046 -48.159596 -14.141688 -2.028877 -39.185318 3.324938 0.000000 0.000000 0.000000 -0.307480 -0.316646 1.397443 0.255788 23.467410 -19.633765 10.360818 56.805474 -2.381895 -10.111753 46.498121 -4.172739 0.000000 0.000000 0.000000 
-11.345248 34.666500 0.162925 177.797324 -0.376977 -177.383564 -5.362027 -8.012003 34.103042 -9.871755 -2.007077 -77.004912 7.065811 -1.599114 42.523477 -10.819328 10.749129 13.950749 0.000000 0.000000 0.000000 4.765538 -14.034222 31.752300 -20.209485 -17.844120 -67.831476 -1.623085 3.202284 47.899167 6.698880 3.220648 20.923673 0.000000 0.000000 0.000000 3.093014 -7.605288 52.963022 -6.031232 -0.524536 26.227342 0.627920 -3.069469 2.683201 0.426809 -0.417843 0.314172 2.047209 -2.667680 7.486894 6.328152 11.162374 6.126208 0.000000 0.000000 0.000000 1.808986 -1.434483 1.937076 -14.099488 -17.684627 -4.402437 -11.232803 -47.033345 -14.710028 -1.835315 -39.939466 3.440913 0.000000 0.000000 0.000000 -0.527378 -0.302033 0.957884 -0.830712 22.488060 -19.421863 13.532731 56.037747 -1.449538 -10.160272 46.659645 -4.737131 0.000000 0.000000 0.000000 
-11.421663 34.736282 0.276337 177.842608 -1.411186 -177.382786 -5.455798 -8.235140 33.817390 -10.894678 -1.385823 -76.883314 7.298101 -1.416181 41.774181 -11.351673 10.979696 15.272277 0.000000 0.000000 0.000000 4.868852 -14.198506 31.592162 -20.392459 -18.068736 -67.059193 -1.685673 3.051361 47.430794 6.770370 3.584094 21.325900 0.000000 0.000000 0.000000 2.719238 -8.188889 53.067933 -6.261633 -0.901415 26.721811 0.323369 -2.685427 2.559376 0.273661 -0.153344 0.161578 2.032963 -2.407106 7.425362 6.634486 11.535717 6.030882 0.000000 0.000000 0.000000 1.852368 -1.301893 1.616827 -13.642195 -17.001388 -4.523994 -11.731029 -45.965472 -15.207136 -1.744461 -40.781034 3.846491 0.000000 0.000000 0.000000 -0.644248 -0.206411 0.815837 -1.446326 21.713755 -18.861972 17.423283 54.340363 -0.370442 -10.562779 47.951893 -5.642075 0.000000 0.000000 0.000000 
-11.421205 34.783100 0.394234 177.990304 -1.983169 -177.414164 -5.487863 -8.191001 33.564888 -11.411834 -0.933548 -76.943420 7.514064 -1.505310 41.334590 -11.671101 10.931106 16.529748 0.000000 0.000000 0.000000 4.884269 -14.035824 31.628656 -20.305965 -18.076485 -66.391638 -1.768488 2.786720 46.716537 6.838553 4.225342 21.809129 0.000000 0.000000 0.000000 2.994473 -8.208167 53.040657 -6.465948 -1.197569 27.176220 0.312365 -2.619838 2.691513 0.261128 -0.117427 0.298845 2.056657 -2.626921 7.293775 6.393565 11.373340 5.238864 0.000000 0.000000 0.000000 1.999721 -1.322013 1.511360 -13.126613 -16.233763 -4.892596 -11.976813 -45.457057 -15.793388 -1.145670 -41.774349 3.908890 0.000000 0.000000 0.000000 -0.696279 -0.252336 0.694303 -2.489353 20.884046 -18.341372 21.034117 52.107588 0.042804 -11.652182 50.337852 -7.143324 0.000000 0.000000 0.000000 
-11.379544 34.805798 0.526768 178.311978 -2.146652 -177.494705 -5.447385 -8.045457 33.546956 -11.207252 -0.666548 -77.327222 7.622286 -1.506076 41.167907 -11.726832 10.713000 17.518540 0.000000 0.000000 0.000000 4.727078 -13.634033 31.971504 -20.149989 -17.930063 -65.959458 -1.252635 2.084262 45.940050 6.534076 3.506556 22.140422 0.000000 0.000000 0.000000 3.319670 -8.094339 53.333071 -6.690009 -1.350514 27.485147 0.366965 -2.598206 2.682066 0.399447 -0.100485 0.310416 2.072021 -3.298441 7.100907 5.944413 11.069667 4.334234 0.000000 0.000000 0.000000 2.256779 -1.268948 1.368412 -12.926446 -15.431749 -5.162613 -12.402254 -45.418040 -16.100165 -0.567960 -42.272666 4.130595 0.000000 0.000000 0.000000 -0.630269 -0.255208 0.687551 -3.268910 20.323778 -17.611966 24.328384 49.498111 -0.088286 -12.919856 53.175311 -8.743035 0.000000 0.000000 0.000000 
-11.316556 34.807392 0.634700 178.712665 -1.930370 -177.633932 -5.229289 -7.820211 33.890490 -10.557179 -0.652719 -78.004940 7.639180 -1.524940 41.212446 -11.677431 10.212808 18.202007 0.000000 0.000000 0.000000 4.389124 -13.185780 32.620751 -19.800812 -17.517688 -65.915328 -0.442759 1.339239 45.235288 5.772256 1.902608 22.246626 0.000000 0.000000 0.000000 2.914399 -8.205264 54.317923 -6.640668 -1.465917 27.282760 0.417310 -2.500105 2.219663 0.325580 0.016584 0.215409 1.810929 -2.448762 6.741047 5.490039 10.725170 4.349911 0.000000 0.000000 0.000000 1.753752 -1.098692 0.844547 -12.448533 -14.432791 -5.051280 -12.933365 -45.584375 -15.845692 -0.149556 -41.945056 4.516217 0.000000 0.000000 0.000000 -0.952305 0.050655 0.388634 -3.004009 20.631456 -16.388552 28.531671 46.982102 0.134172 -14.788365 55.263873 -10.798685 0.000000 0.000000 0.000000 
